<svg id="svg" version="1.1" xmlns="http://www.w3.org/2000/svg" xmlns:xlink="http://www.w3.org/1999/xlink" width="400" height="84.50057405281285" viewBox="0, 0, 400,84.50057405281285"><g id="svgg"><path id="path0" d="M66.286 11.515 C 64.388 11.962,63.000 13.744,63.000 15.734 C 63.000 21.106,70.826 21.823,72.005 16.559 C 72.722 13.360,69.715 10.708,66.286 11.515 M204.030 11.640 C 202.296 12.259,201.171 13.885,201.168 15.778 C 201.159 21.390,209.418 21.688,210.255 16.106 C 210.715 13.043,207.189 10.513,204.030 11.640 M123.458 11.796 C 121.831 11.821,120.483 11.858,120.461 11.879 C 120.440 11.900,120.384 16.754,120.336 22.667 L 120.250 33.417 119.900 33.467 C 119.681 33.498,119.454 33.373,119.295 33.133 C 117.866 30.980,113.517 28.542,110.000 27.923 C 104.671 26.984,99.407 27.944,95.167 30.627 C 91.691 32.827,88.781 36.592,87.602 40.417 C 87.433 40.967,87.231 41.604,87.154 41.833 C 86.256 44.510,86.294 50.128,87.235 53.725 C 88.833 59.831,93.633 65.023,99.250 66.721 C 99.800 66.887,100.513 67.108,100.833 67.211 C 102.953 67.895,109.928 67.898,111.255 67.215 C 111.436 67.123,111.816 67.003,112.100 66.949 C 112.384 66.896,113.036 66.660,113.548 66.426 C 114.060 66.192,114.520 66.000,114.570 66.000 C 115.095 66.000,117.767 63.964,119.090 62.555 C 120.674 60.870,120.889 61.182,120.802 65.040 C 120.761 66.831,120.798 67.349,120.972 67.415 C 121.396 67.577,126.520 67.501,126.844 67.327 C 127.179 67.148,127.371 12.556,127.039 12.071 C 126.834 11.772,126.526 11.748,123.458 11.796 M146.492 11.908 C 146.393 12.007,146.333 22.408,146.333 39.697 L 146.333 67.327 146.708 67.419 C 146.915 67.470,148.358 67.490,149.917 67.464 L 152.750 67.417 152.854 56.083 C 152.960 44.616,153.053 42.906,153.628 41.886 C 153.741 41.686,153.834 41.386,153.834 41.219 C 153.839 39.250,157.860 35.066,160.516 34.265 C 167.848 32.054,174.256 34.426,176.014 40.000 C 176.704 42.189,176.721 42.509,176.820 55.167 L 176.917 67.417 179.667 67.466 C 181.179 67.493,182.642 67.474,182.917 67.424 L 183.417 67.334 183.378 54.625 C 183.336 40.961,183.302 40.345,182.440 37.651 C 181.452 34.563,180.005 32.483,177.538 30.604 C 173.571 27.583,166.372 26.654,160.917 28.460 C 158.226 29.351,156.281 30.464,154.617 32.069 C 152.737 33.881,152.838 34.455,152.836 22.000 L 152.834 11.750 149.742 11.750 C 148.012 11.750,146.581 11.820,146.492 11.908 M315.833 14.684 C 313.855 14.907,311.310 15.339,310.583 15.575 C 310.217 15.694,309.617 15.880,309.250 15.989 C 308.573 16.190,307.674 16.528,306.725 16.939 C 306.436 17.064,306.157 17.167,306.106 17.167 C 305.911 17.167,302.706 19.078,301.667 19.814 C 289.960 28.105,287.435 46.018,296.311 57.822 C 298.848 61.197,303.468 64.801,306.667 65.901 C 307.171 66.074,307.658 66.267,307.750 66.329 C 307.842 66.391,308.404 66.572,309.000 66.732 C 309.596 66.891,310.346 67.103,310.667 67.203 C 311.425 67.440,313.000 67.650,315.114 67.798 L 316.812 67.917 318.448 69.494 C 319.347 70.361,320.239 71.224,320.430 71.410 C 320.620 71.597,321.100 72.012,321.496 72.333 C 321.892 72.654,322.449 73.124,322.733 73.377 C 324.182 74.669,327.873 76.854,329.417 77.333 C 329.783 77.447,330.330 77.643,330.631 77.770 C 330.932 77.896,331.359 78.000,331.581 78.000 C 331.802 78.000,332.416 78.112,332.944 78.250 C 334.198 78.577,337.136 78.577,338.390 78.250 C 338.918 78.112,339.515 77.998,339.716 77.995 C 340.050 77.990,340.913 77.715,342.250 77.188 C 345.000 76.104,349.799 72.167,348.369 72.167 C 348.297 72.167,348.111 71.950,347.954 71.686 C 347.798 71.421,347.380 70.878,347.025 70.477 C 346.669 70.077,346.193 69.531,345.966 69.264 C 345.478 68.690,345.442 68.701,344.000 69.912 C 341.010 72.422,335.828 73.587,332.750 72.439 C 330.037 71.428,328.168 70.215,326.304 68.255 C 325.658 67.575,325.866 67.000,326.759 67.000 C 327.132 67.000,327.528 66.875,329.250 66.216 C 330.361 65.790,330.548 65.710,331.500 65.259 C 334.972 63.612,339.175 60.221,340.807 57.750 C 341.049 57.383,341.286 57.046,341.333 57.000 C 341.796 56.554,343.219 54.017,344.091 52.083 C 344.328 51.557,344.934 49.712,345.376 48.167 C 345.842 46.537,346.170 43.647,346.168 41.176 C 346.166 38.228,345.901 36.446,344.965 33.083 C 343.192 26.715,338.015 20.679,331.545 17.437 C 330.699 17.014,329.911 16.666,329.795 16.666 C 329.679 16.665,329.396 16.569,329.167 16.451 C 328.938 16.334,328.262 16.101,327.667 15.933 C 327.071 15.766,326.396 15.566,326.167 15.488 C 324.111 14.794,318.636 14.368,315.833 14.684 M229.333 15.125 C 229.333 15.194,229.332 26.987,229.331 41.333 L 229.329 67.417 232.289 67.466 C 233.918 67.493,235.494 67.470,235.792 67.416 L 236.333 67.318 236.333 55.776 C 236.333 47.021,236.382 44.185,236.533 44.033 C 236.798 43.768,266.017 43.742,266.511 44.006 C 266.825 44.174,266.833 44.479,266.833 55.667 C 266.833 66.854,266.842 67.159,267.156 67.327 C 267.720 67.629,273.424 67.552,273.738 67.238 C 274.084 66.892,274.145 15.545,273.800 15.200 C 273.518 14.918,267.316 14.918,267.033 15.200 C 266.882 15.352,266.833 18.076,266.833 26.444 C 266.833 37.193,266.825 37.493,266.511 37.661 C 266.081 37.891,237.365 37.901,236.761 37.671 L 236.333 37.508 236.333 26.454 C 236.333 18.079,236.285 15.352,236.133 15.200 C 235.909 14.976,229.334 14.903,229.333 15.125 M321.873 20.826 C 325.373 21.612,326.859 22.119,328.825 23.196 C 333.906 25.979,337.387 30.721,338.776 36.750 C 339.211 38.639,339.212 44.214,338.777 45.917 C 336.937 53.119,333.122 57.618,326.417 60.495 C 326.233 60.574,325.708 60.750,325.250 60.887 C 324.792 61.024,323.967 61.274,323.417 61.443 C 321.929 61.900,315.253 61.895,313.667 61.436 C 311.156 60.710,309.406 60.050,308.417 59.457 C 308.233 59.347,307.708 59.033,307.250 58.759 C 306.792 58.485,306.379 58.217,306.333 58.164 C 306.287 58.111,305.800 57.724,305.250 57.303 C 303.786 56.184,301.632 53.768,301.115 52.667 C 301.050 52.529,300.837 52.154,300.641 51.833 C 300.073 50.905,299.333 49.373,299.333 49.126 C 299.333 49.002,299.263 48.829,299.176 48.742 C 299.024 48.588,298.946 48.318,298.384 46.000 C 297.980 44.336,297.894 38.789,298.246 37.167 C 298.659 35.266,298.836 34.628,299.096 34.111 C 299.226 33.852,299.333 33.547,299.333 33.434 C 299.333 33.110,300.747 30.425,301.563 29.198 C 304.216 25.210,309.929 21.551,314.259 21.066 C 314.804 21.005,315.362 20.893,315.500 20.816 C 315.847 20.623,321.003 20.631,321.873 20.826 M26.667 27.665 C 22.045 28.247,19.090 29.488,16.561 31.908 C 14.684 33.704,14.608 33.651,14.593 30.542 C 14.581 27.800,14.842 27.990,11.167 28.042 L 8.250 28.083 8.208 47.705 L 8.165 67.327 8.541 67.419 C 8.748 67.470,10.192 67.490,11.750 67.464 L 14.583 67.417 14.676 56.333 C 14.778 44.062,14.845 43.174,15.863 40.667 C 17.298 37.132,20.094 34.770,23.968 33.819 C 26.278 33.251,31.464 33.484,32.242 34.190 C 32.329 34.269,32.493 34.333,32.608 34.333 C 33.387 34.333,35.845 36.298,36.690 37.595 C 38.582 40.500,38.667 41.275,38.667 55.595 C 38.667 66.113,38.693 67.308,38.930 67.399 C 39.272 67.530,44.467 67.527,44.958 67.395 L 45.333 67.294 45.331 54.856 C 45.329 39.999,45.253 39.224,43.420 35.463 C 40.676 29.832,34.026 26.737,26.667 27.665 M64.410 28.208 C 64.367 28.323,64.350 37.192,64.374 47.917 L 64.417 67.417 67.250 67.464 C 68.808 67.490,70.252 67.470,70.458 67.419 L 70.833 67.327 70.833 47.765 C 70.833 30.080,70.808 28.193,70.570 28.101 C 70.026 27.892,64.494 27.989,64.410 28.208 M202.583 28.126 C 202.206 28.407,202.371 67.337,202.750 67.430 C 202.933 67.475,204.396 67.490,206.000 67.464 L 208.917 67.417 208.917 47.750 L 208.917 28.083 205.833 28.042 C 204.137 28.020,202.675 28.057,202.583 28.126 M110.250 33.813 C 115.363 35.157,118.587 38.401,120.069 43.692 C 120.442 45.023,120.443 50.307,120.070 51.641 C 118.673 56.640,115.862 59.649,111.000 61.348 C 108.743 62.137,101.988 61.757,101.402 60.809 C 101.353 60.731,101.208 60.667,101.079 60.667 C 99.283 60.667,94.016 54.848,93.998 52.844 C 93.996 52.701,93.892 52.283,93.766 51.917 C 92.864 49.297,93.099 44.609,94.268 41.875 C 96.229 37.291,98.862 35.038,103.833 33.688 C 104.916 33.395,108.958 33.473,110.250 33.813 " stroke="none" fill="#068437" fill-rule="evenodd"></path><path id="path1" d="M0.000 42.250 L 0.000 84.500 200.000 84.500 L 400.000 84.500 400.000 42.250 L 400.000 0.000 200.000 0.000 L 0.000 0.000 0.000 42.250 M69.242 11.154 C 69.294 11.238,69.561 11.357,69.835 11.417 C 70.109 11.477,70.333 11.596,70.333 11.680 C 70.333 11.764,70.409 11.833,70.501 11.833 C 71.361 11.833,72.663 14.052,72.665 15.521 C 72.672 20.120,66.876 22.275,63.775 18.825 C 60.934 15.666,63.244 11.069,67.698 11.017 C 68.495 11.008,69.190 11.069,69.242 11.154 M207.605 11.266 C 208.635 11.691,209.894 12.729,210.235 13.434 C 210.408 13.791,210.613 14.214,210.691 14.373 C 211.195 15.399,210.625 17.639,209.559 18.825 C 206.008 22.775,199.234 19.172,200.957 14.250 C 201.320 13.212,202.896 11.546,203.659 11.393 C 203.942 11.337,204.214 11.225,204.263 11.145 C 204.421 10.890,206.910 10.980,207.605 11.266 M391.090 11.557 C 391.396 11.863,391.682 12.294,391.726 12.515 C 391.769 12.736,391.883 13.329,391.979 13.833 C 392.075 14.338,392.263 15.313,392.396 16.000 C 392.530 16.688,392.764 17.914,392.916 18.725 C 393.069 19.536,393.375 20.681,393.597 21.270 C 394.440 23.509,394.044 24.022,391.370 24.159 L 389.583 24.250 389.306 25.583 C 389.153 26.317,389.022 27.166,389.014 27.470 C 389.006 27.774,388.892 28.637,388.759 29.387 C 388.626 30.137,388.396 31.537,388.248 32.500 C 388.099 33.462,387.914 34.662,387.836 35.167 C 387.758 35.671,387.568 36.946,387.414 38.000 C 387.260 39.054,387.034 40.442,386.912 41.083 C 386.790 41.725,386.528 43.150,386.330 44.250 C 385.144 50.844,384.904 52.065,384.568 53.227 C 384.439 53.673,384.333 54.183,384.333 54.360 C 384.333 54.735,383.867 56.764,383.669 57.250 C 383.594 57.433,383.408 58.033,383.254 58.583 C 382.959 59.638,382.931 59.718,382.340 61.167 C 382.134 61.671,381.890 62.308,381.798 62.583 C 381.235 64.257,379.968 66.195,378.406 67.773 C 376.846 69.350,373.314 70.412,372.736 69.478 C 372.687 69.398,372.498 69.333,372.315 69.333 C 371.909 69.333,370.310 68.328,369.699 67.689 C 369.452 67.431,368.762 66.670,368.167 65.998 C 361.119 58.052,361.529 58.180,358.320 62.918 C 357.823 63.652,356.943 65.190,356.364 66.335 C 354.282 70.452,353.419 71.376,351.919 71.095 C 351.164 70.953,349.500 69.169,349.500 68.501 C 349.500 68.414,349.315 67.947,349.089 67.463 C 348.863 66.979,348.595 66.246,348.495 65.833 C 348.394 65.421,348.239 64.783,348.151 64.417 C 347.337 61.022,346.960 56.838,347.422 56.327 C 348.299 55.359,349.288 56.133,349.507 57.959 C 349.642 59.081,349.961 60.656,350.308 61.917 C 350.559 62.829,351.172 65.288,351.326 66.000 C 351.493 66.773,352.001 67.798,352.269 67.901 C 352.463 67.975,353.167 67.068,353.167 66.743 C 353.167 66.670,353.272 66.491,353.402 66.346 C 353.531 66.202,353.821 65.746,354.046 65.333 C 356.072 61.623,356.862 60.301,357.576 59.417 C 360.808 55.419,362.848 55.934,368.134 62.083 C 372.829 67.544,373.988 68.058,376.631 65.850 C 377.892 64.797,379.908 61.070,380.516 58.667 C 380.690 57.979,380.902 57.267,380.988 57.083 C 381.074 56.900,381.179 56.525,381.221 56.250 C 381.328 55.554,381.670 53.866,381.844 53.167 C 381.925 52.846,382.109 51.908,382.254 51.083 C 382.399 50.258,382.595 49.246,382.690 48.833 C 382.785 48.421,382.963 47.521,383.086 46.833 C 383.296 45.658,383.594 44.172,384.003 42.250 C 384.101 41.792,384.247 40.967,384.328 40.417 C 384.409 39.867,384.630 38.479,384.820 37.333 C 385.010 36.188,385.317 34.260,385.502 33.050 C 385.687 31.840,385.993 29.890,386.182 28.717 C 386.372 27.543,386.567 26.013,386.617 25.316 L 386.707 24.050 386.166 23.941 C 385.868 23.882,385.368 23.833,385.054 23.833 C 383.231 23.833,382.662 22.429,384.037 21.323 C 384.655 20.827,386.333 17.770,386.333 17.142 C 386.333 17.045,386.521 16.592,386.750 16.136 C 386.979 15.679,387.174 15.181,387.183 15.028 C 387.192 14.875,387.549 14.076,387.975 13.253 C 389.134 11.014,390.049 10.516,391.090 11.557 M127.296 11.593 L 127.667 11.852 127.667 39.572 C 127.667 62.917,127.630 67.323,127.437 67.483 C 127.277 67.616,126.176 67.660,123.812 67.629 L 120.417 67.583 120.376 65.250 C 120.317 61.871,120.385 61.967,119.017 63.316 C 117.860 64.457,115.980 65.833,115.578 65.833 C 115.459 65.833,115.336 65.890,115.306 65.958 C 115.275 66.027,114.950 66.221,114.583 66.389 C 114.217 66.558,113.704 66.802,113.445 66.931 C 113.185 67.061,112.807 67.167,112.603 67.167 C 112.400 67.167,112.144 67.256,112.034 67.366 C 111.924 67.476,111.440 67.621,110.959 67.688 C 110.477 67.755,109.746 67.887,109.333 67.981 C 108.381 68.198,104.348 68.199,103.250 67.982 C 102.792 67.892,102.004 67.755,101.500 67.678 C 100.996 67.602,100.396 67.465,100.167 67.374 C 99.938 67.284,99.450 67.117,99.083 67.004 C 98.195 66.730,95.931 65.657,95.861 65.477 C 95.831 65.398,95.714 65.333,95.602 65.333 C 94.211 65.333,89.791 60.593,88.185 57.379 C 86.546 54.100,85.684 48.106,86.308 44.322 C 86.707 41.901,86.818 41.351,86.969 41.058 C 87.055 40.888,87.261 40.337,87.425 39.833 C 88.503 36.517,91.256 32.883,94.178 30.917 C 94.859 30.458,95.454 30.046,95.500 30.000 C 95.546 29.954,96.108 29.660,96.750 29.346 C 97.392 29.032,98.116 28.675,98.359 28.554 C 98.602 28.433,98.944 28.333,99.117 28.333 C 99.291 28.333,99.505 28.272,99.592 28.198 C 100.098 27.766,104.069 27.165,106.365 27.173 C 108.609 27.180,112.091 27.751,112.575 28.190 C 112.662 28.269,112.864 28.333,113.023 28.333 C 113.440 28.333,116.552 29.930,116.913 30.329 C 117.081 30.515,117.274 30.667,117.342 30.667 C 117.511 30.667,118.426 31.450,119.145 32.208 C 119.470 32.552,119.796 32.833,119.868 32.833 C 119.941 32.833,120.000 28.160,120.000 22.449 C 120.000 11.687,120.000 11.687,120.667 11.449 C 121.326 11.213,126.928 11.335,127.296 11.593 M153.278 11.555 C 153.354 11.632,153.454 16.389,153.500 22.127 L 153.583 32.560 154.583 31.646 C 156.706 29.707,158.521 28.761,162.000 27.777 C 165.320 26.839,171.636 27.054,173.706 28.176 C 173.865 28.263,174.101 28.333,174.231 28.333 C 176.015 28.333,180.576 32.257,181.884 34.917 C 182.752 36.683,182.908 37.141,183.563 39.853 C 183.831 40.965,184.002 67.091,183.744 67.510 C 183.625 67.702,177.006 67.718,176.704 67.526 C 176.534 67.419,176.492 65.129,176.497 56.321 C 176.504 42.424,176.360 40.930,174.741 38.176 C 174.200 37.256,172.579 35.500,172.271 35.500 C 172.182 35.500,171.991 35.400,171.846 35.277 C 170.531 34.160,164.317 33.560,161.833 34.310 C 158.673 35.263,155.933 37.447,154.905 39.833 C 154.846 39.971,154.693 40.320,154.565 40.609 C 154.438 40.897,154.333 41.239,154.333 41.367 C 154.333 41.495,154.268 41.671,154.189 41.758 C 153.634 42.364,153.500 45.200,153.500 56.279 C 153.500 65.430,153.461 67.325,153.270 67.483 C 153.110 67.616,151.988 67.660,149.562 67.628 L 146.083 67.583 146.041 39.554 C 146.001 12.963,146.014 11.520,146.291 11.444 C 146.786 11.306,153.131 11.408,153.278 11.555 M322.117 14.336 C 322.557 14.430,323.404 14.575,324.000 14.659 C 327.891 15.208,335.228 18.242,335.806 19.542 C 335.836 19.610,335.935 19.667,336.026 19.667 C 336.116 19.667,336.293 19.760,336.418 19.875 C 336.543 19.990,337.156 20.533,337.781 21.083 C 340.485 23.464,342.697 26.412,344.158 29.583 C 344.870 31.127,344.924 31.263,345.257 32.333 C 345.414 32.837,345.616 33.438,345.706 33.667 C 345.796 33.896,345.933 34.458,346.012 34.917 C 346.091 35.375,346.245 36.237,346.355 36.833 C 346.626 38.306,346.623 44.603,346.350 46.000 C 346.233 46.596,346.072 47.452,345.991 47.903 C 345.911 48.353,345.767 48.800,345.672 48.894 C 345.578 48.989,345.500 49.238,345.500 49.447 C 345.500 50.053,345.012 51.274,343.724 53.887 C 342.591 56.186,342.602 56.167,342.460 56.167 C 342.391 56.167,342.333 56.246,342.333 56.343 C 342.333 57.157,336.195 63.500,335.407 63.500 C 335.354 63.500,335.072 63.682,334.780 63.905 C 333.525 64.862,328.452 67.167,327.601 67.167 C 327.436 67.167,327.086 67.294,326.823 67.449 L 326.344 67.732 327.214 68.550 C 332.546 73.563,339.251 73.807,344.333 69.173 C 345.475 68.132,345.611 68.133,346.516 69.191 C 346.920 69.663,347.329 70.132,347.425 70.233 C 347.993 70.830,349.000 72.324,349.000 72.569 C 349.000 73.107,345.974 75.880,344.833 76.387 C 344.696 76.448,344.471 76.568,344.333 76.654 C 343.871 76.944,341.922 77.799,341.333 77.970 C 339.386 78.539,338.726 78.657,337.000 78.748 C 334.564 78.877,330.703 78.425,330.234 77.956 C 330.166 77.888,330.004 77.833,329.872 77.833 C 329.481 77.833,327.063 76.737,326.911 76.490 C 326.857 76.404,326.694 76.333,326.548 76.333 C 326.401 76.333,326.036 76.146,325.735 75.917 C 325.435 75.688,325.142 75.500,325.085 75.500 C 324.989 75.500,322.356 73.554,322.167 73.343 C 322.121 73.292,321.633 72.877,321.083 72.421 C 320.533 71.965,319.299 70.821,318.341 69.879 L 316.599 68.167 315.258 68.159 C 314.520 68.155,313.579 68.079,313.167 67.989 C 312.754 67.900,311.967 67.758,311.417 67.675 C 310.867 67.592,310.192 67.450,309.917 67.359 C 309.642 67.268,309.004 67.069,308.500 66.916 C 307.996 66.763,307.433 66.575,307.250 66.497 C 307.067 66.419,306.617 66.234,306.250 66.084 C 305.883 65.935,305.358 65.694,305.083 65.549 C 303.850 64.899,303.578 64.743,303.500 64.643 C 303.454 64.585,303.098 64.371,302.708 64.168 C 302.319 63.965,302.000 63.732,302.000 63.650 C 302.000 63.567,301.913 63.500,301.806 63.500 C 301.331 63.500,297.984 60.444,296.514 58.667 C 295.317 57.220,293.829 54.864,293.088 53.244 C 292.481 51.918,291.797 50.024,291.494 48.833 C 290.871 46.385,290.784 45.616,290.715 41.926 C 290.634 37.572,290.768 36.494,291.850 32.833 C 293.203 28.255,297.175 22.659,301.083 19.825 C 301.633 19.426,302.182 19.003,302.304 18.883 C 302.425 18.764,302.605 18.667,302.705 18.667 C 302.804 18.667,303.117 18.496,303.401 18.288 C 304.132 17.751,306.896 16.429,308.500 15.848 C 309.927 15.332,311.882 14.864,313.833 14.571 C 314.704 14.440,315.492 14.301,315.583 14.263 C 315.937 14.114,321.359 14.176,322.117 14.336 M236.623 25.750 C 236.652 33.828,236.715 36.850,236.860 37.126 L 237.057 37.502 251.737 37.459 L 266.417 37.417 266.500 26.217 C 266.557 18.590,266.640 14.960,266.762 14.838 C 266.880 14.720,268.164 14.675,270.595 14.705 L 274.250 14.750 274.250 41.167 L 274.250 67.583 270.565 67.628 C 267.615 67.664,266.842 67.628,266.691 67.446 C 266.556 67.283,266.490 63.976,266.459 55.734 L 266.417 44.250 251.768 44.207 C 240.962 44.176,237.059 44.215,236.890 44.356 C 236.699 44.514,236.662 46.456,236.670 55.966 C 236.676 62.247,236.616 67.451,236.537 67.530 C 236.458 67.609,234.749 67.653,232.738 67.628 L 229.083 67.583 229.041 41.333 C 229.017 26.896,229.034 14.988,229.078 14.872 C 229.141 14.708,229.991 14.670,232.871 14.705 L 236.583 14.750 236.623 25.750 M389.027 17.580 C 388.737 18.174,388.500 18.734,388.500 18.825 C 388.500 18.916,388.306 19.401,388.069 19.901 C 387.422 21.268,387.505 21.408,389.002 21.459 C 390.635 21.515,390.757 21.430,390.528 20.394 C 390.321 19.457,390.052 18.025,389.914 17.125 C 389.781 16.259,389.633 16.335,389.027 17.580 M315.583 21.257 C 312.780 21.660,311.785 21.962,309.333 23.152 C 304.061 25.712,300.526 30.257,298.887 36.583 C 298.504 38.064,298.448 44.189,298.805 45.667 C 299.287 47.668,300.247 50.232,300.925 51.333 C 301.123 51.654,301.338 52.085,301.404 52.292 C 301.469 52.498,301.592 52.667,301.678 52.667 C 301.763 52.667,301.833 52.779,301.833 52.917 C 301.833 53.054,301.896 53.167,301.973 53.167 C 302.050 53.167,302.191 53.335,302.287 53.542 C 302.557 54.127,304.643 56.294,305.750 57.141 C 306.300 57.561,306.775 57.964,306.806 58.036 C 306.836 58.108,306.943 58.167,307.042 58.167 C 307.142 58.167,307.342 58.272,307.487 58.401 C 307.912 58.780,310.228 59.950,310.804 60.077 C 311.095 60.141,311.333 60.262,311.333 60.347 C 311.333 60.431,311.540 60.503,311.792 60.506 C 312.044 60.509,312.438 60.619,312.667 60.750 C 312.896 60.881,313.308 60.992,313.583 60.996 C 313.858 61.000,314.452 61.115,314.901 61.252 C 316.698 61.797,322.380 61.529,324.417 60.803 C 324.692 60.705,325.160 60.589,325.458 60.544 C 325.756 60.500,326.000 60.403,326.000 60.328 C 326.000 60.254,326.225 60.144,326.500 60.083 C 327.404 59.885,328.985 59.010,330.745 57.734 C 342.813 48.988,341.039 29.218,327.625 22.958 C 326.093 22.243,325.697 22.107,323.417 21.513 C 321.455 21.002,318.112 20.893,315.583 21.257 M32.118 27.342 C 33.637 27.548,36.068 28.200,36.956 28.640 C 40.448 30.370,42.576 32.467,44.129 35.705 C 44.425 36.322,44.667 36.945,44.667 37.091 C 44.667 37.236,44.756 37.519,44.865 37.719 C 44.975 37.920,45.120 38.421,45.188 38.833 C 45.257 39.246,45.402 39.921,45.512 40.333 C 45.656 40.874,45.732 44.766,45.784 54.286 L 45.856 67.488 45.470 67.583 C 45.257 67.635,43.583 67.657,41.750 67.631 L 38.417 67.583 38.312 55.417 C 38.253 48.604,38.134 42.810,38.040 42.250 C 37.609 39.672,36.489 37.462,34.987 36.222 C 34.673 35.964,34.314 35.654,34.187 35.534 C 33.970 35.327,33.428 35.056,31.917 34.398 C 31.393 34.170,30.625 34.093,28.333 34.039 C 24.400 33.945,23.040 34.225,20.671 35.614 C 20.260 35.855,19.839 36.134,19.734 36.234 C 19.630 36.335,19.366 36.573,19.147 36.764 C 18.224 37.570,16.667 39.700,16.667 40.156 C 16.667 40.239,16.562 40.519,16.433 40.778 C 15.518 42.629,15.455 43.515,15.345 56.000 C 15.288 62.371,15.225 67.602,15.204 67.625 C 15.089 67.752,8.004 67.642,7.924 67.512 C 7.652 67.072,7.835 28.107,8.111 27.803 C 8.356 27.532,8.694 27.500,11.337 27.500 C 15.306 27.500,15.167 27.397,15.167 30.345 C 15.167 32.635,15.212 32.750,15.846 32.059 C 16.506 31.340,18.677 29.786,19.750 29.265 C 20.300 28.998,20.882 28.715,21.044 28.637 C 23.459 27.466,28.596 26.866,32.118 27.342 M70.984 27.792 L 71.339 28.083 71.295 47.833 L 71.250 67.583 67.917 67.631 C 66.083 67.657,64.415 67.636,64.208 67.586 L 63.833 67.494 63.833 47.756 L 63.833 28.019 64.204 27.759 C 64.785 27.352,70.483 27.379,70.984 27.792 M209.151 27.792 L 209.506 28.083 209.461 47.833 L 209.417 67.583 205.750 67.583 L 202.083 67.583 202.039 47.833 L 201.994 28.083 202.349 27.792 C 202.658 27.537,203.095 27.500,205.750 27.500 C 208.405 27.500,208.842 27.537,209.151 27.792 M103.667 34.153 C 99.469 35.103,95.703 38.608,94.518 42.667 C 94.397 43.079,94.191 43.728,94.059 44.108 C 93.874 44.640,93.832 45.504,93.878 47.858 C 93.941 51.177,94.097 52.042,94.932 53.722 C 95.061 53.981,95.167 54.270,95.167 54.364 C 95.167 54.458,95.392 54.868,95.667 55.276 C 95.942 55.683,96.167 56.050,96.167 56.090 C 96.167 56.820,100.707 60.488,101.631 60.505 C 101.788 60.508,102.062 60.621,102.240 60.755 C 102.418 60.890,102.718 61.001,102.907 61.003 C 103.096 61.004,103.550 61.113,103.917 61.245 C 104.377 61.411,105.305 61.485,106.917 61.485 C 108.529 61.485,109.456 61.411,109.917 61.245 C 110.283 61.113,110.746 61.004,110.945 61.003 C 111.144 61.001,111.519 60.894,111.778 60.764 C 112.038 60.635,112.549 60.391,112.915 60.223 C 114.851 59.331,118.333 56.031,118.333 55.088 C 118.333 55.042,118.549 54.561,118.812 54.018 C 120.197 51.158,120.389 44.759,119.170 42.083 C 119.087 41.900,118.860 41.389,118.666 40.947 C 117.392 38.037,115.014 35.942,111.333 34.485 C 110.344 34.093,104.961 33.860,103.667 34.153 " stroke="none" fill="#fff" fill-rule="evenodd"></path><path id="path2" d="M389.316 11.378 C 388.759 11.750,387.222 14.380,387.183 15.028 C 387.174 15.181,386.979 15.679,386.750 16.136 C 386.521 16.592,386.333 17.045,386.333 17.142 C 386.333 17.770,384.655 20.827,384.037 21.323 C 382.662 22.429,383.231 23.833,385.054 23.833 C 385.368 23.833,385.868 23.882,386.166 23.941 L 386.707 24.050 386.617 25.316 C 386.567 26.013,386.372 27.543,386.182 28.717 C 385.993 29.890,385.687 31.840,385.502 33.050 C 385.317 34.260,385.010 36.188,384.820 37.333 C 384.630 38.479,384.409 39.867,384.328 40.417 C 384.247 40.967,384.101 41.792,384.003 42.250 C 383.594 44.172,383.296 45.658,383.086 46.833 C 382.963 47.521,382.785 48.421,382.690 48.833 C 382.595 49.246,382.399 50.258,382.254 51.083 C 382.109 51.908,381.925 52.846,381.844 53.167 C 381.670 53.866,381.328 55.554,381.221 56.250 C 381.179 56.525,381.074 56.900,380.988 57.083 C 380.902 57.267,380.690 57.979,380.516 58.667 C 379.908 61.070,377.892 64.797,376.631 65.850 C 373.988 68.058,372.829 67.544,368.134 62.083 C 362.848 55.934,360.808 55.419,357.576 59.417 C 356.862 60.301,356.072 61.623,354.046 65.333 C 353.821 65.746,353.531 66.202,353.402 66.346 C 353.272 66.491,353.167 66.670,353.167 66.743 C 353.167 67.068,352.463 67.975,352.269 67.901 C 352.001 67.798,351.493 66.773,351.326 66.000 C 351.172 65.288,350.559 62.829,350.308 61.917 C 349.961 60.656,349.642 59.081,349.507 57.959 C 349.288 56.133,348.299 55.359,347.422 56.327 C 346.960 56.838,347.337 61.022,348.151 64.417 C 348.239 64.783,348.394 65.421,348.495 65.833 C 348.595 66.246,348.863 66.979,349.089 67.463 C 349.315 67.947,349.500 68.414,349.500 68.501 C 349.500 69.169,351.164 70.953,351.919 71.095 C 353.419 71.376,354.282 70.452,356.364 66.335 C 357.893 63.310,360.214 59.934,360.957 59.651 C 361.878 59.301,363.032 60.214,366.258 63.847 C 366.712 64.358,367.571 65.326,368.167 65.998 C 368.762 66.670,369.452 67.431,369.699 67.689 C 370.310 68.328,371.909 69.333,372.315 69.333 C 372.498 69.333,372.687 69.398,372.736 69.478 C 373.051 69.986,375.468 69.696,376.868 68.982 C 378.544 68.127,381.009 64.928,381.798 62.583 C 381.890 62.308,382.134 61.671,382.340 61.167 C 382.931 59.718,382.959 59.638,383.254 58.583 C 383.408 58.033,383.594 57.433,383.669 57.250 C 383.867 56.764,384.333 54.735,384.333 54.360 C 384.333 54.183,384.439 53.673,384.568 53.227 C 384.904 52.065,385.144 50.844,386.330 44.250 C 386.528 43.150,386.790 41.725,386.912 41.083 C 387.034 40.442,387.260 39.054,387.414 38.000 C 387.568 36.946,387.758 35.671,387.836 35.167 C 387.914 34.662,388.099 33.462,388.248 32.500 C 388.396 31.537,388.626 30.137,388.759 29.387 C 388.892 28.637,389.006 27.774,389.014 27.470 C 389.022 27.166,389.153 26.317,389.306 25.583 L 389.583 24.250 391.370 24.159 C 394.044 24.022,394.440 23.509,393.597 21.270 C 393.375 20.681,393.069 19.536,392.916 18.725 C 392.764 17.914,392.530 16.688,392.396 16.000 C 392.263 15.313,392.075 14.338,391.979 13.833 C 391.883 13.329,391.769 12.736,391.726 12.515 C 391.497 11.349,390.245 10.758,389.316 11.378 M146.086 11.684 C 145.914 12.137,146.076 67.387,146.250 67.444 C 146.419 67.501,146.425 11.702,146.256 11.534 C 146.211 11.489,146.135 11.557,146.086 11.684 M203.167 11.783 C 202.534 12.081,201.167 13.433,201.167 13.760 C 201.167 13.871,201.055 14.177,200.918 14.439 C 200.284 15.655,200.873 17.874,202.140 19.042 C 203.067 19.896,203.346 19.835,202.486 18.966 C 200.326 16.785,200.840 13.427,203.597 11.718 C 204.059 11.431,203.843 11.464,203.167 11.783 M64.750 11.885 C 62.970 12.945,62.130 15.222,62.782 17.217 C 63.091 18.160,64.422 19.667,64.946 19.667 C 65.182 19.667,65.159 19.610,64.829 19.383 C 62.308 17.650,62.444 13.582,65.076 11.977 C 65.355 11.807,65.471 11.672,65.333 11.677 C 65.196 11.682,64.933 11.776,64.750 11.885 M120.200 11.867 C 119.940 12.127,119.907 33.333,120.167 33.333 C 120.276 33.333,120.333 29.719,120.333 22.822 C 120.333 15.896,120.392 12.201,120.506 11.989 C 120.698 11.631,120.511 11.556,120.200 11.867 M266.689 15.056 C 266.443 15.353,266.338 37.693,266.583 37.611 C 266.692 37.575,266.765 33.683,266.793 26.498 C 266.832 16.500,266.862 15.411,267.110 15.137 C 267.350 14.873,267.352 14.833,267.130 14.833 C 266.989 14.833,266.791 14.934,266.689 15.056 M229.111 15.111 C 229.050 15.172,229.001 26.966,229.003 41.319 C 229.004 58.293,229.062 67.329,229.167 67.167 C 229.313 66.941,229.421 15.000,229.276 15.000 C 229.246 15.000,229.172 15.050,229.111 15.111 M389.914 17.125 C 390.052 18.025,390.321 19.457,390.528 20.394 C 390.757 21.430,390.635 21.515,389.002 21.459 C 387.505 21.408,387.422 21.268,388.069 19.901 C 388.306 19.401,388.500 18.916,388.500 18.825 C 388.500 18.547,389.544 16.500,389.686 16.500 C 389.759 16.500,389.861 16.781,389.914 17.125 M305.194 17.414 C 304.470 17.813,304.412 18.039,305.125 17.682 C 305.515 17.486,305.833 17.291,305.833 17.247 C 305.833 17.123,305.621 17.179,305.194 17.414 M303.417 18.412 C 303.142 18.637,302.969 18.824,303.032 18.827 C 303.176 18.835,304.333 18.158,304.333 18.067 C 304.333 17.872,303.856 18.052,303.417 18.412 M302.217 19.059 C 302.143 19.183,301.746 19.495,301.333 19.753 C 300.322 20.383,297.974 22.560,296.657 24.089 C 295.630 25.281,293.000 29.418,293.000 29.842 C 293.000 29.912,292.790 30.445,292.533 31.026 C 292.090 32.030,291.947 32.467,291.422 34.417 C 290.834 36.601,290.750 37.473,290.750 41.417 C 290.750 45.846,290.845 46.562,291.897 50.083 C 293.260 54.644,296.464 59.343,300.196 62.254 C 300.776 62.706,301.275 63.133,301.306 63.204 C 301.336 63.275,301.435 63.333,301.525 63.333 C 301.615 63.333,301.928 63.511,302.219 63.729 C 302.511 63.947,303.200 64.371,303.750 64.672 C 304.300 64.972,304.921 65.330,305.130 65.465 C 305.339 65.601,305.547 65.676,305.591 65.631 C 305.635 65.587,304.984 65.160,304.145 64.681 C 290.860 57.113,286.880 39.395,295.508 26.241 C 296.857 24.184,299.600 21.318,301.625 19.850 C 302.290 19.368,302.833 18.942,302.833 18.903 C 302.833 18.731,302.336 18.856,302.217 19.059 M327.500 22.714 C 335.860 26.975,340.141 35.669,338.514 45.083 C 337.785 49.302,335.381 53.931,332.767 56.148 C 332.593 56.296,332.068 56.771,331.600 57.205 C 331.133 57.639,330.656 57.995,330.542 57.997 C 330.427 57.999,330.333 58.075,330.333 58.167 C 330.333 58.258,330.225 58.333,330.093 58.333 C 329.961 58.333,329.804 58.413,329.743 58.511 C 329.182 59.419,331.860 57.484,333.533 55.773 C 338.795 50.390,340.599 41.756,338.049 34.167 C 336.317 29.012,330.977 23.349,326.833 22.271 C 326.604 22.211,326.904 22.411,327.500 22.714 M7.944 27.944 C 7.719 28.170,7.816 67.500,8.042 67.500 C 8.232 67.500,8.303 28.080,8.112 27.890 C 8.081 27.859,8.006 27.883,7.944 27.944 M63.918 28.202 C 63.708 29.069,63.910 67.387,64.125 67.458 C 64.291 67.514,64.333 63.503,64.333 47.774 C 64.333 29.420,64.276 26.718,63.918 28.202 M202.082 28.208 C 201.876 29.062,202.078 67.387,202.289 67.457 C 202.451 67.511,202.494 63.340,202.495 47.680 C 202.495 29.246,202.441 26.723,202.082 28.208 M96.667 29.547 C 96.071 29.839,95.546 30.117,95.500 30.164 C 95.454 30.211,95.135 30.393,94.792 30.568 C 94.448 30.743,94.167 30.944,94.167 31.015 C 94.167 31.086,94.035 31.187,93.875 31.240 C 93.609 31.328,93.307 31.566,92.144 32.601 C 91.220 33.424,89.450 35.603,89.111 36.333 C 89.048 36.471,88.809 36.914,88.581 37.318 C 88.353 37.722,88.167 38.153,88.167 38.276 C 88.167 38.399,88.110 38.500,88.040 38.500 C 87.971 38.500,87.740 39.006,87.527 39.625 C 87.314 40.244,87.075 40.900,86.995 41.083 C 85.769 43.896,86.060 52.359,87.499 55.750 C 89.114 59.557,90.587 61.518,93.724 64.039 C 93.922 64.197,94.158 64.389,94.250 64.464 C 94.342 64.539,94.529 64.653,94.667 64.719 C 94.804 64.784,95.142 64.982,95.417 65.159 C 96.182 65.652,96.865 66.000,97.067 66.000 C 97.168 66.000,96.634 65.633,95.881 65.185 C 89.748 61.537,86.513 55.509,86.503 47.708 C 86.500 45.525,86.789 42.922,87.154 41.833 C 87.231 41.604,87.433 40.967,87.602 40.417 C 88.976 35.961,92.223 32.152,96.695 29.751 C 98.291 28.894,98.273 28.760,96.667 29.547 M158.407 29.242 C 158.095 29.475,158.097 29.480,158.461 29.388 C 158.669 29.336,158.879 29.227,158.929 29.147 C 159.070 28.918,158.765 28.974,158.407 29.242 M18.317 30.213 C 17.187 30.936,17.084 31.020,15.873 32.215 C 14.671 33.402,15.341 33.070,16.644 31.834 C 17.318 31.194,18.275 30.439,18.769 30.156 C 19.263 29.873,19.667 29.610,19.667 29.571 C 19.667 29.401,19.348 29.552,18.317 30.213 M157.167 29.798 C 156.938 29.952,156.712 30.122,156.667 30.176 C 156.621 30.231,156.322 30.419,156.003 30.596 C 155.325 30.971,154.040 32.116,153.805 32.554 C 153.547 33.035,154.122 32.654,154.917 31.819 C 155.283 31.433,156.142 30.754,156.824 30.309 C 157.506 29.864,157.956 29.504,157.824 29.509 C 157.692 29.514,157.396 29.644,157.167 29.798 M32.500 34.390 C 32.500 34.422,32.856 34.628,33.292 34.849 C 34.531 35.477,36.185 37.236,36.894 38.679 C 38.245 41.428,38.327 42.427,38.330 56.208 C 38.332 63.623,38.391 67.500,38.500 67.500 C 38.610 67.500,38.667 63.454,38.667 55.696 C 38.667 42.128,38.635 41.692,37.455 39.010 C 36.982 37.935,36.350 37.017,35.524 36.207 C 34.609 35.310,32.500 34.043,32.500 34.390 M170.938 34.579 C 170.992 34.719,171.140 34.833,171.268 34.833 C 171.593 34.833,171.557 34.709,171.170 34.502 C 170.902 34.358,170.859 34.372,170.938 34.579 M172.083 35.214 C 173.117 35.964,174.435 37.486,174.942 38.517 C 176.401 41.481,176.370 41.138,176.446 55.250 C 176.487 62.873,176.571 67.437,176.672 67.472 C 176.971 67.575,176.881 44.033,176.576 42.433 C 175.908 38.929,174.679 36.729,172.627 35.360 C 171.740 34.769,171.310 34.653,172.083 35.214 M113.746 35.425 C 114.091 35.659,114.405 35.817,114.446 35.776 C 114.549 35.674,113.577 35.000,113.326 35.000 C 113.213 35.000,113.402 35.191,113.746 35.425 M115.971 37.208 C 117.381 38.633,118.074 39.595,118.670 40.956 C 118.862 41.393,119.084 41.900,119.165 42.083 C 120.374 44.819,120.238 50.890,118.904 53.796 C 118.682 54.280,118.500 54.741,118.500 54.820 C 118.500 55.628,115.451 58.912,113.840 59.839 C 113.288 60.157,112.836 60.475,112.835 60.547 C 112.830 60.951,115.665 58.967,116.867 57.726 C 121.070 53.384,121.662 44.550,118.107 39.202 C 117.353 38.067,115.149 35.833,114.784 35.833 C 114.687 35.833,115.221 36.452,115.971 37.208 M266.500 55.694 C 266.554 63.268,266.642 67.409,266.750 67.445 C 266.916 67.500,266.920 44.656,266.754 44.208 C 266.467 43.432,266.426 45.289,266.500 55.694 M328.910 59.011 C 328.728 59.305,328.920 59.346,329.262 59.087 C 329.544 58.874,329.549 58.843,329.302 58.839 C 329.146 58.836,328.970 58.913,328.910 59.011 M328.011 59.570 C 327.849 59.765,327.876 59.791,328.160 59.717 C 328.577 59.608,328.782 59.333,328.447 59.333 C 328.315 59.333,328.119 59.440,328.011 59.570 M120.333 64.583 C 120.333 66.978,120.375 67.500,120.568 67.500 C 120.821 67.500,120.963 62.992,120.739 62.097 C 120.472 61.036,120.333 61.887,120.333 64.583 M316.667 68.071 C 316.667 68.176,318.462 69.961,320.035 71.421 C 321.154 72.459,324.083 74.833,324.244 74.833 C 324.305 74.833,324.594 75.012,324.886 75.231 C 325.557 75.735,327.362 76.693,327.458 76.597 C 327.498 76.557,327.280 76.396,326.974 76.240 C 326.171 75.829,323.340 73.919,322.733 73.377 C 322.449 73.124,321.893 72.654,321.499 72.333 C 321.104 72.012,319.922 70.925,318.872 69.917 C 317.054 68.172,316.667 67.847,316.667 68.071 M344.384 69.254 C 344.035 69.577,343.172 70.230,342.465 70.705 C 341.758 71.180,341.203 71.592,341.230 71.619 C 341.421 71.810,344.332 69.839,345.067 69.020 C 345.587 68.442,345.070 68.619,344.384 69.254 M327.667 76.763 C 327.667 76.875,328.532 77.190,328.615 77.107 C 328.653 77.069,328.455 76.959,328.175 76.861 C 327.895 76.764,327.667 76.719,327.667 76.763 " stroke="none" fill="#e49a56" fill-rule="evenodd"></path><path id="path3" d="M66.583 11.335 C 66.365 11.429,66.517 11.447,67.026 11.386 C 72.121 10.773,74.160 17.930,69.408 19.745 C 68.989 19.904,68.688 20.077,68.738 20.127 C 68.789 20.178,69.149 20.080,69.540 19.910 C 72.949 18.428,73.505 14.166,70.556 12.122 C 69.405 11.325,67.485 10.944,66.583 11.335 M205.951 11.344 C 210.875 11.984,211.949 18.030,207.454 19.802 C 206.975 19.991,206.717 20.150,206.881 20.156 C 207.834 20.191,209.576 18.777,210.154 17.500 C 211.519 14.480,209.116 11.101,205.667 11.190 C 204.969 11.208,204.989 11.218,205.951 11.344 M122.042 11.791 C 122.844 11.821,124.156 11.821,124.958 11.791 C 125.760 11.760,125.104 11.735,123.500 11.735 C 121.896 11.735,121.240 11.760,122.042 11.791 M126.667 11.788 C 126.804 11.840,126.972 11.966,127.039 12.067 C 127.345 12.524,127.182 67.140,126.875 67.331 C 126.608 67.497,126.612 67.508,126.917 67.462 C 127.248 67.412,127.250 67.267,127.296 39.914 C 127.344 10.732,127.361 11.660,126.788 11.680 C 126.539 11.689,126.499 11.724,126.667 11.788 M148.217 11.791 C 149.023 11.821,150.298 11.821,151.050 11.791 C 151.802 11.760,151.142 11.735,149.583 11.735 C 148.025 11.735,147.410 11.760,148.217 11.791 M152.836 21.948 C 152.838 32.859,152.845 33.000,153.379 33.000 C 153.697 33.000,153.701 32.981,153.442 32.695 C 153.192 32.419,153.167 31.443,153.167 22.122 C 153.167 15.456,153.108 11.817,153.000 11.750 C 152.890 11.682,152.834 15.123,152.836 21.948 M316.333 14.480 C 315.841 14.559,316.356 14.597,317.833 14.592 C 319.071 14.587,320.683 14.634,321.417 14.697 C 322.356 14.776,322.578 14.764,322.167 14.656 C 321.394 14.451,317.284 14.327,316.333 14.480 M232.607 14.956 C 235.140 14.994,236.010 15.061,236.148 15.227 C 236.276 15.382,236.344 18.776,236.374 26.502 C 236.410 35.760,236.454 37.568,236.648 37.633 C 236.812 37.687,236.836 37.642,236.732 37.480 C 236.650 37.353,236.546 32.225,236.500 26.083 L 236.417 14.917 232.833 14.911 L 229.250 14.906 232.607 14.956 M270.404 14.958 C 272.381 14.989,273.641 15.076,273.779 15.191 C 274.159 15.506,274.101 66.875,273.720 67.256 C 273.458 67.518,273.461 67.532,273.762 67.474 C 274.150 67.399,274.366 15.524,273.980 15.059 C 273.832 14.881,273.107 14.841,270.521 14.871 L 267.250 14.909 270.404 14.958 M323.750 15.010 C 324.640 15.194,325.252 15.187,324.667 15.000 C 324.438 14.927,323.987 14.868,323.667 14.869 L 323.083 14.872 323.750 15.010 M325.667 15.346 C 326.681 15.646,327.122 15.712,326.817 15.516 C 326.671 15.422,326.221 15.307,325.817 15.259 C 325.091 15.174,325.090 15.175,325.667 15.346 M327.667 15.917 C 328.456 16.221,328.892 16.215,328.189 15.910 C 327.881 15.776,327.506 15.672,327.356 15.679 C 327.206 15.686,327.346 15.793,327.667 15.917 M328.925 16.322 C 329.012 16.407,329.308 16.526,329.583 16.586 L 330.083 16.696 329.606 16.431 C 329.076 16.138,328.670 16.072,328.925 16.322 M331.756 17.547 C 338.220 20.906,343.209 26.774,344.965 33.083 C 345.901 36.446,346.166 38.228,346.168 41.176 C 346.170 43.647,345.842 46.537,345.376 48.167 C 344.934 49.712,344.328 51.557,344.091 52.083 C 343.219 54.017,341.796 56.554,341.333 57.000 C 341.286 57.046,341.049 57.383,340.807 57.750 C 339.222 60.150,334.832 63.721,331.685 65.171 C 331.282 65.357,330.993 65.549,331.043 65.599 C 331.152 65.707,332.516 65.029,333.989 64.135 C 339.739 60.642,343.633 55.376,345.546 48.500 C 346.933 43.517,346.535 35.661,344.680 31.417 C 344.600 31.233,344.369 30.671,344.166 30.167 C 342.141 25.119,337.178 19.980,331.808 17.368 C 329.783 16.383,329.748 16.504,331.756 17.547 M67.292 20.284 C 67.498 20.324,67.835 20.324,68.042 20.284 C 68.248 20.245,68.079 20.212,67.667 20.212 C 67.254 20.212,67.085 20.245,67.292 20.284 M205.377 20.286 C 205.631 20.325,206.006 20.324,206.211 20.284 C 206.416 20.244,206.208 20.213,205.750 20.214 C 205.292 20.216,205.124 20.248,205.377 20.286 M315.511 20.823 C 315.362 20.917,315.675 20.939,316.345 20.881 C 316.934 20.830,317.448 20.761,317.486 20.727 C 317.642 20.591,315.732 20.683,315.511 20.823 M320.377 20.786 C 320.631 20.825,321.006 20.824,321.211 20.784 C 321.416 20.744,321.208 20.713,320.750 20.714 C 320.292 20.716,320.124 20.748,320.377 20.786 M314.294 21.118 C 314.501 21.158,314.801 21.156,314.960 21.115 C 315.120 21.073,314.950 21.040,314.583 21.042 C 314.217 21.044,314.086 21.078,314.294 21.118 M312.184 21.516 C 311.320 21.814,310.730 22.150,311.417 21.954 C 312.984 21.506,313.847 21.193,313.500 21.199 C 313.271 21.203,312.679 21.346,312.184 21.516 M309.111 22.754 C 305.996 24.330,303.232 26.689,301.563 29.198 C 300.747 30.425,299.333 33.110,299.333 33.434 C 299.333 33.547,299.226 33.852,299.096 34.111 C 298.836 34.628,298.659 35.266,298.246 37.167 C 297.894 38.789,297.980 44.336,298.384 46.000 C 298.946 48.318,299.024 48.588,299.176 48.742 C 299.263 48.829,299.333 49.002,299.333 49.126 C 299.333 49.373,300.073 50.905,300.641 51.833 C 300.837 52.154,301.050 52.529,301.115 52.667 C 301.632 53.768,303.786 56.184,305.250 57.303 C 305.800 57.724,306.287 58.111,306.333 58.164 C 306.741 58.637,308.548 59.542,308.167 59.083 C 308.053 58.946,307.891 58.833,307.807 58.833 C 306.784 58.833,302.193 54.279,301.087 52.167 C 295.076 40.685,298.526 28.410,309.315 22.886 C 310.267 22.399,310.942 22.002,310.815 22.004 C 310.688 22.007,309.921 22.344,309.111 22.754 M26.458 27.618 C 26.665 27.657,27.002 27.657,27.208 27.618 C 27.415 27.578,27.246 27.545,26.833 27.545 C 26.421 27.545,26.252 27.578,26.458 27.618 M31.333 27.671 C 39.388 28.740,43.569 32.712,45.012 40.667 C 45.483 43.261,45.509 67.263,45.042 67.385 C 44.822 67.442,44.843 67.466,45.125 67.481 L 45.500 67.500 45.502 54.458 C 45.504 40.296,45.526 40.669,44.550 37.583 C 42.713 31.771,36.769 27.323,31.107 27.525 C 30.455 27.548,30.468 27.556,31.333 27.671 M103.711 27.620 C 103.964 27.658,104.339 27.657,104.544 27.617 C 104.749 27.578,104.542 27.546,104.083 27.548 C 103.625 27.549,103.457 27.581,103.711 27.620 M108.333 27.671 C 108.837 27.741,109.587 27.841,110.000 27.893 L 110.750 27.988 109.917 27.760 C 109.458 27.635,108.708 27.535,108.250 27.538 L 107.417 27.544 108.333 27.671 M164.544 27.620 C 164.797 27.658,165.172 27.657,165.377 27.617 C 165.582 27.578,165.375 27.546,164.917 27.548 C 164.458 27.549,164.291 27.581,164.544 27.620 M169.167 27.612 C 177.010 28.404,181.828 32.829,183.087 40.401 C 183.466 42.680,183.539 67.292,183.167 67.393 C 183.029 67.431,183.087 67.470,183.296 67.481 L 183.674 67.500 183.617 54.208 C 183.556 40.165,183.573 40.495,182.775 37.692 C 181.168 32.043,174.882 27.310,169.274 27.527 C 168.616 27.552,168.611 27.556,169.167 27.612 M24.833 27.833 C 24.503 27.939,24.486 27.967,24.750 27.967 C 24.933 27.967,25.271 27.907,25.500 27.833 C 25.830 27.728,25.847 27.700,25.583 27.700 C 25.400 27.700,25.063 27.760,24.833 27.833 M102.083 27.833 C 101.634 27.948,101.626 27.961,102.000 27.964 C 102.229 27.965,102.604 27.907,102.833 27.833 C 103.394 27.654,102.788 27.654,102.083 27.833 M163.083 27.833 C 162.630 27.949,162.622 27.961,163.000 27.969 C 163.229 27.973,163.567 27.912,163.750 27.833 C 164.161 27.657,163.777 27.657,163.083 27.833 M11.362 27.992 C 14.879 28.101,14.581 27.864,14.593 30.562 C 14.603 32.745,14.676 33.167,15.043 33.167 C 15.180 33.167,15.177 33.111,15.033 32.967 C 14.897 32.830,14.833 32.032,14.833 30.463 L 14.833 28.158 14.406 27.996 C 14.171 27.906,12.727 27.849,11.197 27.867 L 8.417 27.902 11.362 27.992 M64.442 27.958 C 64.399 28.027,65.651 28.061,67.223 28.034 C 68.795 28.006,70.250 28.027,70.457 28.079 L 70.833 28.173 70.833 47.739 C 70.833 63.231,70.790 67.325,70.625 67.400 C 70.510 67.452,70.567 67.476,70.750 67.453 C 71.081 67.412,71.084 67.271,71.126 47.786 L 71.168 28.159 70.740 27.996 C 70.242 27.807,64.557 27.773,64.442 27.958 M202.609 27.958 C 202.566 28.027,203.968 28.083,205.724 28.083 L 208.917 28.083 208.917 47.792 C 208.917 58.631,208.974 67.481,209.044 67.458 C 209.281 67.378,209.198 28.123,208.960 27.972 C 208.694 27.803,202.713 27.790,202.609 27.958 M112.000 28.371 C 115.010 29.424,118.225 31.521,119.289 33.125 C 119.426 33.331,119.698 33.498,119.894 33.495 C 120.228 33.490,120.231 33.479,119.942 33.311 C 119.773 33.213,119.369 32.838,119.044 32.479 C 117.346 30.599,113.561 28.400,111.465 28.076 C 111.164 28.030,111.404 28.162,112.000 28.371 M24.360 33.697 C 23.267 33.941,23.614 34.012,24.913 33.810 C 25.544 33.712,27.144 33.659,28.469 33.693 C 29.793 33.728,30.699 33.706,30.480 33.644 C 29.873 33.474,25.177 33.515,24.360 33.697 M103.833 33.688 C 98.862 35.038,96.229 37.291,94.268 41.875 C 93.099 44.609,92.864 49.297,93.766 51.917 C 93.892 52.283,93.996 52.701,93.998 52.844 C 94.016 54.823,99.280 60.667,101.044 60.667 C 101.154 60.667,100.682 60.334,99.997 59.927 C 97.397 58.386,94.184 54.280,94.164 52.475 C 94.163 52.351,94.040 51.913,93.891 51.500 C 93.477 50.358,93.486 45.127,93.903 43.750 C 95.209 39.435,97.306 36.714,100.579 35.084 C 102.941 33.907,104.358 33.620,107.449 33.691 C 108.865 33.724,109.849 33.702,109.636 33.642 C 109.040 33.474,104.489 33.510,103.833 33.688 M161.946 33.833 C 161.320 34.000,160.758 34.192,160.696 34.259 C 160.634 34.327,160.771 34.331,161.000 34.268 C 162.897 33.746,163.879 33.642,166.385 33.695 C 167.834 33.725,168.847 33.701,168.635 33.642 C 167.745 33.391,163.106 33.524,161.946 33.833 M21.750 34.563 C 17.879 36.390,15.867 39.143,15.039 43.750 C 14.679 45.751,14.450 67.538,14.789 67.463 C 14.949 67.427,15.006 64.889,15.046 56.000 C 15.101 43.906,15.107 43.799,15.922 41.381 C 17.063 37.995,19.517 35.498,22.917 34.265 C 23.296 34.128,23.440 34.021,23.250 34.018 C 23.067 34.015,22.392 34.260,21.750 34.563 M159.140 34.892 C 156.685 36.258,153.838 39.653,153.834 41.219 C 153.834 41.386,153.741 41.686,153.628 41.886 C 153.054 42.904,152.961 44.618,152.855 56.125 C 152.785 63.681,152.806 67.481,152.917 67.445 C 153.024 67.409,153.117 63.299,153.178 55.820 C 153.260 45.800,153.310 44.095,153.552 43.090 C 154.510 39.104,156.252 36.701,159.417 35.001 C 160.562 34.386,160.644 34.327,160.319 34.350 C 160.190 34.359,159.659 34.603,159.140 34.892 M244.292 37.792 C 248.348 37.816,254.985 37.816,259.042 37.792 C 263.098 37.767,259.779 37.746,251.667 37.746 C 243.554 37.746,240.235 37.767,244.292 37.792 M236.533 44.033 C 236.382 44.185,236.333 47.020,236.333 55.771 C 236.333 66.619,236.316 67.313,236.042 67.385 C 235.822 67.442,235.843 67.466,236.125 67.481 L 236.500 67.500 236.500 55.937 C 236.500 46.451,236.540 44.341,236.724 44.188 C 236.885 44.055,241.135 43.989,251.683 43.958 L 266.417 43.915 251.575 43.874 C 240.208 43.843,236.687 43.880,236.533 44.033 M308.585 59.503 C 308.764 59.792,312.306 61.174,312.832 61.160 C 313.045 61.154,311.495 60.545,310.417 60.212 C 310.233 60.156,309.753 59.935,309.350 59.721 C 308.529 59.287,308.435 59.260,308.585 59.503 M101.574 60.922 C 101.751 61.057,102.014 61.164,102.157 61.161 C 102.323 61.157,102.267 61.069,102.000 60.917 C 101.455 60.605,101.159 60.609,101.574 60.922 M102.917 61.407 C 103.192 61.542,103.642 61.646,103.917 61.640 C 104.411 61.628,104.409 61.627,103.833 61.495 C 103.513 61.422,103.063 61.318,102.833 61.263 C 102.481 61.178,102.494 61.201,102.917 61.407 M313.667 61.402 C 313.987 61.534,314.512 61.638,314.833 61.635 L 315.417 61.628 314.833 61.500 C 314.512 61.429,313.987 61.324,313.667 61.267 L 313.083 61.162 313.667 61.402 M119.394 62.267 C 118.464 63.401,115.106 66.000,114.570 66.000 C 114.520 66.000,114.069 66.188,113.568 66.417 C 113.067 66.646,112.572 66.833,112.467 66.833 C 112.363 66.833,112.325 66.881,112.384 66.939 C 112.634 67.190,115.433 65.836,117.000 64.706 C 118.026 63.966,120.333 61.789,120.333 61.561 C 120.333 61.313,119.923 61.621,119.394 62.267 M322.208 61.615 C 322.369 61.657,322.631 61.657,322.792 61.615 C 322.952 61.573,322.821 61.539,322.500 61.539 C 322.179 61.539,322.048 61.573,322.208 61.615 M105.958 61.790 C 106.440 61.823,107.227 61.823,107.708 61.790 C 108.190 61.756,107.796 61.728,106.833 61.728 C 105.871 61.728,105.477 61.756,105.958 61.790 M317.368 61.790 C 317.982 61.822,319.032 61.822,319.701 61.791 C 320.370 61.759,319.867 61.733,318.583 61.732 C 317.300 61.732,316.753 61.758,317.368 61.790 M330.275 65.781 C 330.159 65.897,329.550 66.133,328.123 66.616 C 327.687 66.764,327.361 66.916,327.399 66.955 C 327.465 67.021,328.711 66.649,329.417 66.352 C 330.504 65.895,330.886 65.687,330.653 65.677 C 330.508 65.671,330.337 65.718,330.275 65.781 M111.083 67.256 C 110.409 67.565,110.978 67.565,111.689 67.257 C 112.063 67.094,112.139 67.015,111.917 67.020 C 111.733 67.024,111.358 67.130,111.083 67.256 M326.095 67.262 C 325.744 67.613,325.758 67.680,326.304 68.255 C 327.960 69.997,331.219 72.203,332.068 72.157 C 332.168 72.151,331.761 71.908,331.162 71.615 C 328.056 70.096,325.435 67.492,326.668 67.149 C 327.047 67.043,327.052 67.032,326.720 67.017 C 326.521 67.007,326.239 67.118,326.095 67.262 M108.833 67.675 C 108.654 67.797,108.772 67.814,109.250 67.734 C 110.077 67.596,110.210 67.499,109.569 67.503 C 109.302 67.504,108.971 67.582,108.833 67.675 M105.292 67.957 C 105.865 67.989,106.802 67.989,107.375 67.957 C 107.948 67.924,107.479 67.898,106.333 67.898 C 105.188 67.898,104.719 67.924,105.292 67.957 M315.125 67.954 C 315.423 67.991,315.910 67.991,316.208 67.954 C 316.506 67.917,316.262 67.887,315.667 67.887 C 315.071 67.887,314.827 67.917,315.125 67.954 M345.471 68.584 C 345.418 68.638,345.571 68.885,345.812 69.134 C 346.689 70.039,347.677 71.216,347.954 71.686 C 348.111 71.950,348.297 72.167,348.369 72.167 C 349.072 72.167,347.042 74.394,345.297 75.538 C 343.876 76.468,342.256 77.262,340.947 77.669 C 340.597 77.778,340.346 77.902,340.390 77.945 C 341.136 78.691,348.667 73.792,348.667 72.560 C 348.667 72.047,345.700 68.356,345.471 68.584 M332.811 72.423 C 333.119 72.557,333.494 72.664,333.644 72.660 C 333.794 72.657,333.664 72.544,333.356 72.410 C 333.047 72.276,332.672 72.170,332.523 72.173 C 332.373 72.177,332.502 72.289,332.811 72.423 M338.500 72.500 C 338.157 72.610,338.142 72.636,338.417 72.648 C 338.600 72.655,338.862 72.589,339.000 72.500 C 339.292 72.311,339.089 72.311,338.500 72.500 M335.048 72.790 C 335.578 72.823,336.403 72.823,336.881 72.789 C 337.359 72.756,336.925 72.729,335.917 72.729 C 334.908 72.729,334.517 72.757,335.048 72.790 M338.333 78.273 L 337.583 78.502 338.250 78.401 C 338.617 78.346,339.217 78.243,339.583 78.171 L 340.250 78.042 339.667 78.043 C 339.346 78.043,338.746 78.147,338.333 78.273 M335.292 78.621 C 335.590 78.658,336.077 78.658,336.375 78.621 C 336.673 78.584,336.429 78.553,335.833 78.553 C 335.237 78.553,334.994 78.584,335.292 78.621 " stroke="none" fill="#ffffff" fill-rule="evenodd"></path><path id="path4" d="M65.667 11.343 C 64.952 11.720,65.178 11.748,66.265 11.418 C 69.898 10.316,73.464 13.657,72.218 16.994 C 71.038 20.155,67.837 21.197,64.608 19.474 C 64.405 19.365,64.333 19.365,64.400 19.473 C 64.982 20.415,68.551 20.768,69.941 20.022 C 72.355 18.726,73.406 15.707,72.184 13.583 C 71.706 12.754,70.821 11.833,70.501 11.833 C 70.409 11.833,70.333 11.764,70.333 11.680 C 70.333 11.596,70.109 11.477,69.835 11.417 C 69.561 11.357,69.294 11.238,69.242 11.154 C 69.062 10.863,66.302 11.009,65.667 11.343 M204.167 11.152 C 204.029 11.225,203.635 11.420,203.291 11.586 C 202.946 11.751,202.701 11.923,202.745 11.967 C 202.789 12.011,202.921 11.970,203.038 11.875 C 203.750 11.297,206.008 11.046,207.214 11.412 C 212.402 12.986,211.202 20.222,205.750 20.238 C 204.811 20.241,204.249 20.157,203.849 19.954 C 203.028 19.538,202.639 19.600,203.423 20.023 C 204.426 20.563,206.945 20.567,208.038 20.029 C 210.025 19.050,211.473 15.964,210.691 14.373 C 210.613 14.214,210.408 13.791,210.235 13.434 C 209.398 11.703,205.730 10.324,204.167 11.152 M120.542 11.505 C 119.938 11.748,120.004 11.752,123.662 11.702 L 127.157 11.654 127.249 12.035 C 127.300 12.245,127.321 24.792,127.296 39.917 L 127.250 67.417 123.833 67.505 L 120.417 67.594 123.842 67.630 C 126.326 67.657,127.322 67.612,127.467 67.467 C 127.621 67.313,127.667 60.887,127.667 39.559 L 127.667 11.852 127.296 11.593 C 126.874 11.297,121.241 11.224,120.542 11.505 M146.425 11.487 C 146.353 11.603,147.419 11.674,149.701 11.705 L 153.083 11.750 153.126 22.106 C 153.171 32.934,153.221 33.648,153.849 32.469 C 154.035 32.120,154.029 32.105,153.781 32.309 C 153.528 32.518,153.504 31.754,153.462 22.114 C 153.437 16.383,153.354 11.632,153.278 11.555 C 153.067 11.344,146.553 11.279,146.425 11.487 M315.583 14.263 C 315.492 14.301,314.704 14.440,313.833 14.571 C 312.358 14.792,311.069 15.071,309.667 15.471 C 308.233 15.880,306.408 16.666,306.891 16.667 C 307.060 16.667,307.398 16.561,307.641 16.431 C 307.884 16.302,308.533 16.071,309.083 15.919 C 309.633 15.766,310.233 15.578,310.417 15.502 C 312.550 14.610,319.176 14.146,322.418 14.662 C 323.059 14.764,324.071 14.925,324.667 15.020 C 326.170 15.258,328.329 15.877,329.609 16.437 C 329.897 16.563,330.186 16.667,330.250 16.667 C 330.537 16.667,333.369 18.148,334.500 18.889 C 338.751 21.676,342.526 26.080,344.166 30.167 C 344.369 30.671,344.600 31.233,344.680 31.417 C 346.535 35.661,346.933 43.517,345.546 48.500 C 343.327 56.472,338.008 62.760,331.026 65.667 C 330.324 65.959,329.637 66.253,329.500 66.322 C 329.210 66.466,327.682 66.931,326.834 67.132 C 326.507 67.210,326.228 67.390,326.199 67.540 C 326.046 68.335,331.313 72.167,332.559 72.167 C 332.688 72.167,333.062 72.279,333.391 72.417 C 335.426 73.267,340.424 72.370,342.333 70.811 C 342.785 70.443,342.582 70.525,341.667 71.081 C 337.394 73.679,331.587 72.661,327.214 68.550 L 326.344 67.732 326.823 67.449 C 327.086 67.294,327.436 67.167,327.601 67.167 C 328.452 67.167,333.525 64.862,334.780 63.905 C 335.072 63.682,335.354 63.500,335.407 63.500 C 336.195 63.500,342.333 57.157,342.333 56.343 C 342.333 56.246,342.391 56.167,342.460 56.167 C 342.602 56.167,342.591 56.186,343.724 53.887 C 345.012 51.274,345.500 50.053,345.500 49.447 C 345.500 49.238,345.578 48.989,345.672 48.894 C 345.767 48.800,345.911 48.353,345.991 47.903 C 346.072 47.452,346.233 46.596,346.350 46.000 C 346.623 44.603,346.626 38.306,346.355 36.833 C 346.245 36.237,346.091 35.375,346.012 34.917 C 345.933 34.458,345.796 33.896,345.706 33.667 C 345.616 33.438,345.414 32.837,345.257 32.333 C 344.571 30.129,342.619 26.413,341.274 24.750 C 340.314 23.564,338.835 22.011,337.781 21.083 C 337.156 20.533,336.543 19.990,336.418 19.875 C 336.293 19.760,336.116 19.667,336.026 19.667 C 335.935 19.667,335.836 19.610,335.806 19.542 C 335.228 18.242,327.891 15.208,324.000 14.659 C 323.404 14.575,322.557 14.430,322.117 14.336 C 321.359 14.176,315.937 14.114,315.583 14.263 M229.114 14.775 C 228.898 14.991,229.000 15.207,229.230 15.017 C 229.390 14.884,230.512 14.840,232.938 14.872 L 236.417 14.917 236.500 26.083 C 236.546 32.225,236.644 37.344,236.718 37.458 C 236.870 37.693,266.246 37.776,266.391 37.542 C 266.433 37.473,259.851 37.436,251.763 37.460 L 237.058 37.504 236.861 37.127 C 236.715 36.850,236.652 33.843,236.623 25.750 L 236.583 14.750 232.906 14.705 C 230.883 14.681,229.177 14.712,229.114 14.775 M266.777 14.789 C 266.734 14.859,268.292 14.895,270.240 14.869 C 273.108 14.830,273.819 14.865,273.975 15.053 C 274.119 15.227,274.157 21.816,274.126 41.351 L 274.083 67.417 270.417 67.507 L 266.750 67.596 270.500 67.590 L 274.250 67.583 274.250 41.167 L 274.250 14.750 270.553 14.705 C 268.520 14.681,266.821 14.718,266.777 14.789 M305.094 17.328 C 304.370 17.692,303.696 18.076,303.597 18.181 C 303.429 18.359,303.724 18.238,304.500 17.810 C 305.155 17.450,306.166 17.000,306.324 17.000 C 306.421 17.000,306.500 16.925,306.500 16.833 C 306.500 16.610,306.579 16.582,305.094 17.328 M316.667 20.834 C 311.842 21.454,308.130 22.968,305.250 25.490 C 297.602 32.188,296.000 42.450,301.087 52.167 C 302.497 54.860,306.001 58.067,309.250 59.639 C 310.947 60.460,311.788 60.766,313.750 61.279 C 315.154 61.645,321.922 61.726,323.083 61.390 C 323.450 61.284,324.200 61.073,324.750 60.920 C 325.300 60.768,325.975 60.545,326.250 60.425 C 326.525 60.305,326.862 60.160,327.000 60.102 C 327.137 60.044,326.991 60.036,326.675 60.084 C 326.359 60.132,326.059 60.235,326.008 60.313 C 325.958 60.390,325.692 60.493,325.417 60.541 C 325.142 60.589,324.692 60.708,324.417 60.805 C 322.361 61.530,316.695 61.796,314.901 61.252 C 314.452 61.115,313.858 61.000,313.583 60.996 C 313.308 60.992,312.896 60.881,312.667 60.750 C 312.438 60.619,312.044 60.509,311.792 60.506 C 311.540 60.503,311.333 60.431,311.333 60.347 C 311.333 60.262,311.095 60.141,310.804 60.077 C 310.228 59.950,307.912 58.780,307.487 58.401 C 307.342 58.272,307.142 58.167,307.042 58.167 C 306.943 58.167,306.836 58.108,306.806 58.036 C 306.775 57.964,306.300 57.561,305.750 57.141 C 304.643 56.294,302.557 54.127,302.287 53.542 C 302.191 53.335,302.050 53.167,301.973 53.167 C 301.896 53.167,301.833 53.054,301.833 52.917 C 301.833 52.779,301.763 52.667,301.678 52.667 C 301.592 52.667,301.469 52.498,301.404 52.292 C 301.338 52.085,301.123 51.654,300.925 51.333 C 300.247 50.232,299.287 47.668,298.805 45.667 C 298.448 44.189,298.504 38.064,298.887 36.583 C 300.526 30.257,304.061 25.712,309.333 23.152 C 310.913 22.385,311.307 22.227,312.417 21.916 C 312.967 21.762,313.642 21.571,313.917 21.492 C 315.870 20.932,321.463 20.932,323.417 21.492 C 323.692 21.571,324.367 21.762,324.917 21.916 C 325.467 22.070,326.161 22.314,326.459 22.458 C 326.758 22.602,327.036 22.686,327.078 22.644 C 327.301 22.421,324.329 21.370,322.833 21.143 C 319.554 20.646,318.524 20.595,316.667 20.834 M327.333 22.749 C 327.333 22.786,327.727 23.006,328.208 23.239 C 328.690 23.471,328.901 23.532,328.679 23.373 C 328.245 23.062,327.333 22.640,327.333 22.749 M25.583 27.418 C 24.850 27.535,24.063 27.683,23.833 27.747 C 22.061 28.242,21.155 28.550,21.071 28.687 C 20.959 28.867,21.813 28.701,22.086 28.489 C 22.649 28.051,26.582 27.500,29.144 27.500 C 37.145 27.500,42.464 30.981,44.550 37.583 C 45.526 40.669,45.504 40.296,45.502 54.458 L 45.500 67.500 41.958 67.538 L 38.417 67.576 41.750 67.627 C 43.583 67.655,45.257 67.635,45.470 67.583 L 45.856 67.488 45.784 54.286 C 45.732 44.766,45.656 40.874,45.512 40.333 C 45.402 39.921,45.257 39.246,45.188 38.833 C 45.120 38.421,44.975 37.920,44.865 37.719 C 44.756 37.519,44.667 37.236,44.667 37.091 C 44.667 36.945,44.425 36.322,44.129 35.705 C 42.576 32.467,40.448 30.370,36.956 28.640 C 34.426 27.386,29.262 26.831,25.583 27.418 M102.917 27.414 C 101.354 27.652,100.035 27.959,99.627 28.178 C 99.468 28.263,99.217 28.333,99.070 28.333 C 98.922 28.333,98.602 28.434,98.359 28.557 C 98.116 28.680,97.358 29.055,96.675 29.390 C 95.992 29.726,95.516 30.000,95.616 30.000 C 95.717 30.000,96.238 29.784,96.775 29.520 C 104.306 25.818,114.078 27.159,119.158 32.592 C 119.566 33.028,119.925 33.307,119.957 33.213 C 120.037 32.973,117.668 30.667,117.342 30.667 C 117.274 30.667,117.081 30.515,116.913 30.329 C 116.552 29.930,113.440 28.333,113.023 28.333 C 112.864 28.333,112.662 28.269,112.575 28.190 C 111.702 27.398,106.015 26.941,102.917 27.414 M163.750 27.421 C 161.335 27.802,157.273 29.256,156.890 29.877 C 156.832 29.971,157.001 29.933,157.267 29.793 C 167.483 24.407,180.108 28.316,182.775 37.692 C 183.573 40.495,183.556 40.165,183.617 54.208 L 183.674 67.500 180.212 67.538 L 176.750 67.576 180.155 67.625 C 182.027 67.652,183.623 67.610,183.700 67.533 C 183.989 67.244,183.859 41.080,183.563 39.853 C 182.908 37.141,182.752 36.683,181.884 34.917 C 180.576 32.257,176.015 28.333,174.231 28.333 C 174.101 28.333,173.865 28.263,173.706 28.176 C 172.084 27.297,166.984 26.910,163.750 27.421 M8.278 27.611 C 8.005 27.884,8.333 27.914,11.045 27.865 C 12.764 27.834,14.107 27.882,14.379 27.986 L 14.833 28.158 14.833 30.486 C 14.833 33.111,14.888 33.232,15.682 32.370 C 15.994 32.031,16.058 31.921,15.823 32.127 C 15.178 32.690,15.167 32.660,15.167 30.345 C 15.167 27.397,15.305 27.500,11.339 27.500 C 9.716 27.500,8.339 27.550,8.278 27.611 M64.375 27.610 C 63.777 27.852,64.447 27.912,67.213 27.865 C 69.044 27.834,70.441 27.882,70.714 27.986 L 71.168 28.159 71.126 47.788 L 71.083 67.417 67.583 67.507 L 64.083 67.597 67.667 67.590 L 71.250 67.583 71.295 47.833 L 71.339 28.083 70.984 27.792 C 70.639 27.507,65.013 27.353,64.375 27.610 M202.500 27.667 C 202.197 27.863,201.933 27.848,205.667 27.839 C 207.362 27.835,208.845 27.893,208.960 27.968 C 209.128 28.078,209.171 32.116,209.171 47.761 L 209.171 67.417 205.593 67.417 C 203.626 67.417,202.074 67.474,202.145 67.545 C 202.216 67.616,203.881 67.653,205.845 67.628 L 209.417 67.583 209.461 47.833 L 209.506 28.083 209.151 27.792 C 208.748 27.460,202.987 27.352,202.500 27.667 M19.792 29.178 C 19.152 29.516,18.942 29.742,19.449 29.548 C 20.131 29.286,20.895 28.847,20.667 28.847 C 20.529 28.848,20.135 28.997,19.792 29.178 M18.375 30.019 C 17.807 30.383,17.623 30.627,18.125 30.351 C 18.507 30.141,19.106 29.678,19.000 29.675 C 18.954 29.673,18.673 29.828,18.375 30.019 M155.917 30.500 C 155.265 30.932,155.497 30.932,156.204 30.501 C 156.504 30.318,156.675 30.168,156.583 30.168 C 156.492 30.169,156.192 30.318,155.917 30.500 M24.627 33.839 C 20.588 34.519,17.264 37.399,15.922 41.381 C 15.107 43.798,15.101 43.907,15.045 56.000 L 14.993 67.417 11.455 67.505 L 7.917 67.593 11.542 67.630 C 13.535 67.650,15.184 67.648,15.204 67.625 C 15.225 67.602,15.288 62.371,15.345 56.000 C 15.455 43.515,15.518 42.629,16.433 40.778 C 16.562 40.519,16.667 40.239,16.667 40.156 C 16.667 39.700,18.224 37.570,19.147 36.764 C 19.366 36.573,19.630 36.335,19.734 36.234 C 19.839 36.134,20.260 35.855,20.671 35.614 C 23.040 34.225,24.400 33.945,28.333 34.039 C 31.393 34.111,31.410 34.114,33.542 35.127 C 33.610 35.160,33.667 35.146,33.667 35.096 C 33.667 34.133,27.760 33.311,24.627 33.839 M103.333 34.010 C 101.341 34.528,99.258 35.657,97.897 36.958 C 95.784 38.977,94.886 40.504,93.903 43.750 C 93.486 45.127,93.477 50.358,93.891 51.500 C 94.040 51.913,94.163 52.351,94.164 52.475 C 94.170 52.988,95.581 55.666,96.429 56.774 C 98.066 58.911,99.765 60.092,102.905 61.279 C 104.677 61.948,110.529 61.699,111.786 60.901 C 111.989 60.772,112.308 60.667,112.494 60.667 C 112.681 60.667,112.833 60.597,112.833 60.511 C 112.833 60.426,112.989 60.306,113.179 60.246 C 113.369 60.186,113.487 60.098,113.441 60.052 C 113.394 60.005,113.145 60.074,112.887 60.205 C 112.628 60.335,112.167 60.568,111.861 60.721 C 111.556 60.874,111.144 61.001,110.945 61.003 C 110.746 61.004,110.283 61.113,109.917 61.245 C 109.456 61.411,108.529 61.485,106.917 61.485 C 105.305 61.485,104.377 61.411,103.917 61.245 C 103.550 61.113,103.096 61.004,102.907 61.003 C 102.718 61.001,102.418 60.890,102.240 60.755 C 102.062 60.621,101.788 60.508,101.631 60.505 C 100.707 60.488,96.167 56.820,96.167 56.090 C 96.167 56.050,95.942 55.683,95.667 55.276 C 95.392 54.868,95.167 54.458,95.167 54.364 C 95.167 54.270,95.061 53.981,94.932 53.722 C 94.097 52.042,93.941 51.177,93.878 47.858 C 93.832 45.504,93.874 44.640,94.059 44.108 C 94.191 43.728,94.397 43.079,94.518 42.667 C 95.579 39.032,98.369 36.123,102.250 34.605 L 103.583 34.083 106.917 34.083 C 109.985 34.083,110.327 34.113,111.223 34.462 C 111.876 34.715,112.173 34.770,112.126 34.628 C 112.087 34.512,111.912 34.394,111.736 34.366 C 111.560 34.339,111.267 34.249,111.083 34.168 C 109.745 33.573,105.358 33.484,103.333 34.010 M163.083 33.764 C 157.607 35.026,154.839 37.735,153.552 43.090 C 153.310 44.095,153.260 45.801,153.178 55.833 L 153.083 67.417 149.557 67.417 C 147.618 67.417,146.066 67.473,146.109 67.542 C 146.246 67.763,153.075 67.692,153.300 67.467 C 153.452 67.315,153.500 64.600,153.500 56.266 C 153.500 45.200,153.635 42.364,154.189 41.758 C 154.268 41.671,154.333 41.495,154.333 41.367 C 154.333 41.239,154.438 40.897,154.565 40.609 C 154.693 40.320,154.846 39.971,154.905 39.833 C 155.933 37.447,158.673 35.263,161.833 34.310 C 163.203 33.896,169.223 34.008,170.222 34.465 C 170.733 34.698,171.002 34.757,170.958 34.625 C 170.920 34.510,170.745 34.393,170.570 34.364 C 170.394 34.335,169.987 34.188,169.667 34.038 C 169.096 33.771,163.977 33.558,163.083 33.764 M112.500 34.953 C 112.638 35.004,113.069 35.222,113.458 35.437 C 113.848 35.651,114.167 35.792,114.167 35.749 C 114.167 35.581,112.823 34.834,112.545 34.846 C 112.313 34.857,112.303 34.880,112.500 34.953 M171.441 34.999 C 171.638 35.078,171.849 35.224,171.909 35.322 C 171.970 35.420,172.100 35.500,172.199 35.500 C 172.298 35.500,172.188 35.350,171.955 35.167 C 171.721 34.983,171.430 34.838,171.307 34.844 C 171.184 34.850,171.244 34.919,171.441 34.999 M34.347 35.708 C 34.385 35.731,34.642 35.938,34.917 36.167 L 35.417 36.583 35.013 36.125 C 34.790 35.873,34.534 35.667,34.443 35.667 C 34.352 35.667,34.309 35.685,34.347 35.708 M236.700 44.200 C 236.548 44.352,236.500 47.191,236.500 55.959 L 236.500 67.518 232.766 67.467 C 230.712 67.439,229.066 67.473,229.109 67.542 C 229.226 67.731,236.463 67.695,236.580 67.505 C 236.635 67.416,236.676 62.214,236.670 55.945 C 236.662 46.427,236.698 44.515,236.891 44.355 C 237.062 44.213,240.929 44.174,251.795 44.207 C 259.865 44.230,266.433 44.194,266.391 44.125 C 266.251 43.899,236.927 43.973,236.700 44.200 M86.212 45.333 C 86.212 45.746,86.245 45.915,86.284 45.708 C 86.324 45.502,86.324 45.165,86.284 44.958 C 86.245 44.752,86.212 44.921,86.212 45.333 M86.212 50.000 C 86.212 50.413,86.245 50.581,86.284 50.375 C 86.324 50.169,86.324 49.831,86.284 49.625 C 86.245 49.419,86.212 49.587,86.212 50.000 M119.408 62.605 C 115.739 67.083,107.440 69.143,100.735 67.241 C 100.269 67.108,99.771 67.000,99.629 67.000 C 99.488 67.000,99.157 66.888,98.894 66.751 C 98.631 66.614,98.304 66.499,98.167 66.496 C 98.029 66.492,97.771 66.379,97.593 66.245 C 97.415 66.110,97.153 66.003,97.010 66.007 C 96.662 66.016,97.747 66.549,98.857 66.915 C 99.348 67.076,99.938 67.283,100.167 67.374 C 100.396 67.465,100.996 67.602,101.500 67.678 C 102.004 67.755,102.792 67.892,103.250 67.982 C 104.348 68.199,108.381 68.198,109.333 67.981 C 109.746 67.887,110.477 67.755,110.959 67.688 C 111.440 67.621,111.924 67.476,112.034 67.366 C 112.144 67.256,112.400 67.167,112.603 67.167 C 112.807 67.167,113.185 67.061,113.445 66.931 C 113.704 66.802,114.217 66.558,114.583 66.389 C 114.950 66.221,115.275 66.027,115.306 65.958 C 115.336 65.890,115.459 65.833,115.578 65.833 C 115.979 65.833,117.859 64.458,119.010 63.324 C 119.643 62.699,120.185 62.285,120.228 62.391 C 120.272 62.497,120.313 62.415,120.320 62.208 C 120.340 61.648,120.110 61.749,119.408 62.605 M304.667 65.319 C 304.896 65.507,305.233 65.705,305.417 65.758 C 305.600 65.811,305.900 65.919,306.083 65.999 C 307.136 66.457,307.678 66.662,308.500 66.914 C 309.004 67.068,309.642 67.268,309.917 67.359 C 310.192 67.450,310.867 67.592,311.417 67.675 C 311.967 67.758,312.754 67.900,313.167 67.989 C 313.579 68.079,314.554 68.145,315.333 68.137 L 316.750 68.121 315.333 67.990 C 313.809 67.850,312.037 67.585,310.833 67.317 C 309.084 66.928,307.446 66.460,307.333 66.317 C 307.287 66.259,307.063 66.159,306.833 66.095 C 306.305 65.948,305.760 65.724,304.917 65.307 L 304.250 64.977 304.667 65.319 M344.996 68.589 C 344.810 68.812,344.837 68.824,345.209 68.682 C 345.672 68.506,345.838 68.661,347.822 71.136 C 348.930 72.517,348.912 72.703,347.542 73.994 C 342.310 78.923,334.097 80.013,327.451 76.661 C 327.104 76.486,326.862 76.411,326.914 76.495 C 327.063 76.738,329.486 77.833,329.872 77.833 C 330.004 77.833,330.166 77.888,330.234 77.956 C 330.301 78.023,330.782 78.177,331.303 78.298 C 335.259 79.216,339.641 78.853,342.917 77.337 C 343.467 77.083,344.029 76.828,344.167 76.772 C 345.553 76.201,349.000 73.204,349.000 72.569 C 349.000 72.324,347.993 70.830,347.425 70.233 C 347.329 70.132,346.920 69.663,346.516 69.191 C 345.758 68.305,345.361 68.148,344.996 68.589 M324.545 75.167 C 324.779 75.350,325.024 75.500,325.090 75.500 C 325.157 75.500,325.021 75.350,324.788 75.167 C 324.555 74.983,324.310 74.833,324.243 74.833 C 324.176 74.833,324.312 74.983,324.545 75.167 M325.833 75.982 C 326.063 76.171,326.362 76.327,326.500 76.329 C 326.719 76.331,326.586 76.242,325.625 75.746 C 325.511 75.686,325.604 75.793,325.833 75.982 " stroke="none" fill="#fff" fill-rule="evenodd"></path></g></svg>